<?xml version="1.0" encoding="utf-8"?>
<!-- Generator: Adobe Illustrator 15.1.0, SVG Export Plug-In . SVG Version: 6.00 Build 0)  -->
<!DOCTYPE svg PUBLIC "-//W3C//DTD SVG 1.1//EN" "http://www.w3.org/Graphics/SVG/1.1/DTD/svg11.dtd">
<svg version="1.1" id="Layer_1" xmlns="http://www.w3.org/2000/svg" xmlns:xlink="http://www.w3.org/1999/xlink" x="0px" y="0px"
	 width="600px" height="186.058px" viewBox="0 0 600 186.058" enable-background="new 0 0 600 186.058" xml:space="preserve">
<g>
	<path fill-rule="evenodd" clip-rule="evenodd" d="M201.971,0c6.905,0,13.81,0,20.715,0c35.901,6.515,59.472,25.36,76.201,51.047
		C318.309,27.56,339.597,5.939,376.567,0c7.152,0,14.303,0,21.454,0c44.206,5.312,71.407,37.015,97.657,61.405
		c8.529,7.924,19.191,20.005,29.594,23.674c22.791,8.037,39.547-5.72,51.785-17.016c8.844-8.162,14.617-19.433,22.936-25.154
		c0.424,39.684-15.408,68.591-36.992,90.998c-21.18,21.988-47.791,39.533-80.639,47.348
		c-81.053,19.281-144.618-23.009-183.475-64.364c-19.112,20.915-39.316,39.617-65.843,51.788
		c-50.227,23.042-114.754,21.109-158.321-4.44C33.366,139.987-0.129,102.471,0,42.169c16.178,15.881,26.646,37.553,51.048,43.65
		c24.635,6.153,40.238-12.098,53.266-24.415C131.052,36.128,159.028,4.433,201.971,0z"/>
	<path fill-rule="evenodd" clip-rule="evenodd" fill="#FFFFFF" d="M376.567,0c-36.971,5.939-58.259,27.56-77.681,51.047
		C282.158,25.36,258.586,6.515,222.686,0"/>
</g>
</svg>
